<?xml version="1.0" encoding="utf-8"?>
<!-- Generator: Adobe Illustrator 26.0.2, SVG Export Plug-In . SVG Version: 6.00 Build 0)  -->
<svg version="1.1" id="Layer_1" xmlns="http://www.w3.org/2000/svg" xmlns:xlink="http://www.w3.org/1999/xlink" x="0px" y="0px"
	 viewBox="0 0 62 62" style="enable-background:new 0 0 62 62;" xml:space="preserve">
<style type="text/css">
	.st0{clip-path:url(#SVGID_00000008871033064551031980000001185161390945665673_);fill:#DDF4F4;}
	.st1{clip-path:url(#SVGID_00000056387211117657278100000003844612184263300003_);}
	.st2{fill:#761A0D;}
	.st3{fill:#63150C;}
	.st4{fill:#1E4B51;}
	.st5{fill:#4CA1A7;}
	.st6{fill:#E97B69;}
	.st7{fill:#DE675A;}
	.st8{fill:#EE9789;}
	.st9{fill:#CA5A50;}
	.st10{fill:#B59B74;}
	.st11{fill:#C4AB80;}
	.st12{fill:#996E23;}
</style>
<g>
	<g>
		<defs>
			<circle id="SVGID_1_" cx="30.8" cy="31.3" r="30"/>
		</defs>
		<clipPath id="SVGID_00000175307843694911399130000012035522780122065333_">
			<use xlink:href="#SVGID_1_"  style="overflow:visible;"/>
		</clipPath>
		
			<circle style="clip-path:url(#SVGID_00000175307843694911399130000012035522780122065333_);fill:#DDF4F4;" cx="30.8" cy="31.3" r="30"/>
	</g>
	<g>
		<defs>
			<circle id="SVGID_00000104702464636414251280000004955992642349530529_" cx="30.8" cy="31.3" r="30"/>
		</defs>
		<clipPath id="SVGID_00000057828439405956927920000013696353694682992319_">
			<use xlink:href="#SVGID_00000104702464636414251280000004955992642349530529_"  style="overflow:visible;"/>
		</clipPath>
		<g style="clip-path:url(#SVGID_00000057828439405956927920000013696353694682992319_);">
			<g>
				<path class="st2" d="M23.3,37.2c0,0,0.7-4.9-0.3-8.6c-0.9-3.1-2.4-6.3-3.6-4.9c-1.1,1.4,0.2,5.4,0.2,5.4s-6.2-9.5-7.5-7.6
					s4,7.2,4,7.2s-5.1-3.1-4.9-1C11.5,29.8,16,32,16,32s-6.9-1.8-5.9,0.4C11.1,34.7,23.3,37.2,23.3,37.2z"/>
				<path class="st3" d="M22,34.2c-0.3-4.1-1.8-8.5-1.8-8.6l0.4-0.2c0,0.1,1.6,4.5,1.8,8.7L22,34.2z"/>
				
					<rect x="17.1" y="21.5" transform="matrix(0.7999 -0.6001 0.6001 0.7999 -13.5305 16.0292)" class="st3" width="0.4" height="13.7"/>
				<path class="st3" d="M21.1,34.7c-0.9-0.6-2-1.4-3.1-2.3c-3.3-2.3-5.4-3.9-5.6-4l0.3-0.3c0.2,0.1,3.1,2.3,5.6,4
					c1.2,0.9,2.3,1.6,3.1,2.3L21.1,34.7z"/>
				<path class="st3" d="M21.3,35.1c-1.6-0.1-9.6-2.7-10-2.8l0.2-0.4c0.1,0,8.2,2.7,9.9,2.8L21.3,35.1z"/>
			</g>
			<path class="st4" d="M32,61.1c-3.4-16-10.2-25.8-10.3-25.9l0.3-0.3C22.1,35,28.9,44.9,32.3,61L32,61.1z"/>
			
				<rect x="30.8" y="27.1" transform="matrix(0.9889 -0.1488 0.1488 0.9889 -6.1199 5.1062)" class="st4" width="0.4" height="32.8"/>
			
				<rect x="26.1" y="39.9" transform="matrix(0.3609 -0.9326 0.9326 0.3609 -15.1312 58.1077)" class="st4" width="17.5" height="0.4"/>
			<path class="st5" d="M38.3,39.6c-1.7,0-3.1-0.2-3.3-0.3l0,0c0-0.1-0.1-0.2,0-0.3c0.3-0.6,3.5-4,8.2-4.5c2.3-0.3,5.5,0.2,5.8,0.7
				c0.1,0.1,0.1,0.3,0,0.4c-0.3,0.8-2.8,2.9-6.8,3.7C41,39.6,39.5,39.6,38.3,39.6z M35.4,39c0.9,0.2,4,0.3,6.7-0.1
				c4.1-0.8,6.3-3,6.5-3.5c-0.3-0.3-2.9-0.8-5.4-0.5C38.9,35.5,36.1,38.3,35.4,39z"/>
			<path class="st4" d="M19.7,34.3c3.8,5,10.5,2.9,10.5,3.2C30.2,37.9,27.6,32.8,19.7,34.3z"/>
			<g>
				<path class="st6" d="M19.8,13.6c0,0,0.9,9.7,2.4,11.6s5.8,3,5.8,3s2.6-4.3-1-10.6C26,15.8,19.8,13.6,19.8,13.6z"/>
				<path class="st6" d="M34,12.2c0,0-3.7,1.2-5.4,3.8c-1.9,3-1.6,5.3-1.6,6.2c0.1,3.4,1.1,6,1.1,6s5.7-4.4,6.3-7
					C35,18.6,34,12.2,34,12.2z"/>
				<path class="st7" d="M27.5,18.4c-0.7,1.8-0.5,3.2-0.5,4c0.1,3.4,1.1,6,1.1,6S30.5,24.2,27.5,18.4z"/>
				<path class="st8" d="M17.1,18.6c0,0,2.5,4.2,3.7,7.6c1.5,4.2,6.8,4.2,7.5,4.1s1-3.4-0.5-6.2c-1.6-2.9-2.8-4.8-5.6-5.6
					C21.3,18.2,17.1,18.6,17.1,18.6z"/>
				<path class="st8" d="M36.9,16.6c-0.8,0.1-4.9,1.1-6.4,3.3c-1.6,2.2-2,6.8-2,6.8l-0.2,3.6c0,0,3.6-0.3,5.5-1.5
					c1.8-1.2,3.1-4.4,3.1-5.6C36.9,21.9,36.9,16.6,36.9,16.6z"/>
			</g>
			<g>
				<path class="st6" d="M37.8,15.9c-3.6,1.6-5.7,4.7-5.1,9.1c0.6,4.4,4.6,7.5,7.7,7.5c3.6,0.1,9.6-2.8,10.2-6.5
					c0.3-1.8,0.1-6.5-2.9-8.8C44.7,15,39.6,15,37.8,15.9z"/>
				<path class="st9" d="M40.9,32.6l-0.3-0.3c0.1-0.1,4.4-6.2,1.7-9.4c-1-1.1-2.7-1.3-4.6-0.4c-0.2,0.1-0.3,0.2-0.5,0.3
					c0,0.7-0.2,1.3-0.3,1.6c-0.3,0.3-0.6,0.5-1,0.3c-0.3-0.2-0.4-0.4-0.4-0.6c0-0.5,0.6-1.1,1.3-1.6c0-1.6-0.6-3.6-1.8-4.5l0.3-0.3
					c1.3,1,2,2.9,2.1,4.6c0.1-0.1,0.3-0.1,0.3-0.2c2.2-1,4.1-0.8,5.1,0.5C45.5,26.3,41.1,32.4,40.9,32.6z M36.7,23.2
					c-0.4,0.3-0.8,0.8-0.9,1c0,0,0,0.2,0.2,0.3c0.1,0.1,0.3,0.1,0.3-0.2C36.6,24,36.7,23.7,36.7,23.2z"/>
				<path class="st9" d="M43.9,23c-0.6-0.8-0.9-1.6-0.7-2.3c0.1-0.9,0.7-1.6,1.1-2.1c-0.8,0.1-2,0.1-2.5-0.7c-0.3-0.4-0.4-1-0.3-1.4
					c0.2-0.8,1-1.2,1-1.2l0.2,0.3c0,0-0.6,0.3-0.8,1c-0.1,0.3,0,0.7,0.3,1c0.5,0.8,2.2,0.5,2.8,0.3c0.1,0,0.2,0,0.3,0.1
					c0.1,0.1,0,0.2-0.1,0.3c0,0-1.3,1-1.6,2.3c-0.1,0.7,0.1,1.4,0.6,2L43.9,23z"/>
				<path class="st9" d="M43.1,26.5c0-0.2-0.3-3.5,1.6-4.3c0.6-0.3,1.6-0.2,2.2,0.1c0-0.2,0.1-0.3,0.2-0.4c0.3-0.6,1-1.7,2.4-1.8
					v0.4c-1.3,0.1-1.9,1-2.1,1.6c-0.1,0.2-0.1,0.3-0.2,0.4c0.1,0.1,0.2,0.1,0.2,0.2c0.5,0.7,0.8,1.2,0.6,1.6
					c-0.1,0.1-0.2,0.3-0.4,0.3c-0.3,0.1-0.4,0-0.6-0.2c-0.3-0.3-0.4-1-0.3-1.7c-0.5-0.3-1.4-0.3-1.9-0.2c-1.6,0.7-1.4,3.9-1.4,3.9
					L43.1,26.5z M47.2,23.1c0,0.5,0.1,1,0.2,1.1c0.1,0.1,0.1,0.1,0.2,0.1c0.1,0,0.1-0.1,0.1-0.1C47.8,24.1,47.8,23.8,47.2,23.1z"/>
				<path class="st9" d="M38.7,20.1c-1.3,0-2.5-0.8-2.6-0.9l0.3-0.3c0,0,1.6,1.1,3.1,0.7c1.4-0.4,2-2.3,2-2.3l0.4,0.1
					c0,0.1-0.7,2.1-2.3,2.6C39.2,20.1,38.9,20.1,38.7,20.1z"/>
			</g>
			<path class="st4" d="M38.2,32.5c0,0-1.8-5.4-6.7-6.8C32.1,29.5,34.2,31,38.2,32.5z"/>
			<path class="st4" d="M37.5,32.4c0,0,7.6,2,13-2.7C45.6,27.8,42.3,29.1,37.5,32.4z"/>
			<polygon class="st10" points="19.5,41 23.4,56.5 36,46.6 			"/>
			<path class="st11" d="M27.9,75.4H32l8.5-33.9l-18.6,8.3L27.9,75.4z"/>
			<g>
				<path class="st12" d="M30.4,54.5L30,54.4c0,0-3.6-1-5.1-1.5c-2.4-0.7-4.8-2.9-5.2-4.8c-0.2-0.9,0-1.6,0.5-2.2
					c0.8-0.8,1.7-1,2.7-1c3.1,0.5,5.8,5.6,6,5.8l0,0L30.4,54.5z M22.4,45.5c-0.7,0-1.3,0.3-1.9,0.9c-0.4,0.4-0.6,1-0.4,1.7
					c0.4,1.7,2.7,3.8,4.9,4.5c1.2,0.3,3.6,1,4.7,1.3l-1.2-2.8c-0.1-0.2-2.8-5.1-5.6-5.6C22.6,45.5,22.4,45.5,22.4,45.5z"/>
				<path class="st12" d="M29.6,54.4l0.1-0.4c0-0.1,0.9-2.9,1.4-4.1c0.3-0.5,1.6-3,3.1-3.1c0.6,0,1.1,0.3,1.6,1
					c0.3,0.6,0.5,1.2,0.3,1.8c-0.3,1-1.3,2.1-3.2,3.1c-1.6,0.9-2.9,1.4-3,1.4L29.6,54.4z M34.3,47.3L34.3,47.3
					c-1.1,0.1-2.3,1.8-2.8,2.9c-0.4,0.9-1,2.7-1.3,3.6c0.5-0.3,1.5-0.7,2.5-1.2l0,0c1.7-1,2.8-1.9,2.9-2.9c0.1-0.5,0-1-0.3-1.5
					C35.2,47.6,34.8,47.3,34.3,47.3z"/>
				<path class="st12" d="M25.4,58.3c-2.5,0-4.6-2-4.7-2.1l0.3-0.3c0,0,2.9,2.9,5.9,1.6c2-0.8,2.9-3.8,2.9-3.8l0.4,0.1
					c0,0.2-1,3.2-3.2,4.1C26.5,58.3,25.9,58.3,25.4,58.3z"/>
				<path class="st12" d="M35.6,58.3c-0.6,0-1.3-0.2-2.2-0.4c-1.7-0.7-3.6-3.5-3.6-3.6l0.3-0.3c0,0,1.8,2.8,3.5,3.5
					c3.3,1.3,4.6-0.8,4.6-0.9l0.3,0.3C38.7,56.8,37.7,58.3,35.6,58.3z"/>
			</g>
		</g>
	</g>
</g>
</svg>
