<svg width="68" height="60" viewBox="0 0 68 60" fill="none" xmlns="http://www.w3.org/2000/svg">
<mask id="mask0_1343:95283" style="mask-type:alpha" maskUnits="userSpaceOnUse" x="4" y="0" width="60" height="60">
<circle cx="34" cy="30" r="30" fill="#DDF4F4"/>
</mask>
<g mask="url(#mask0_1343:95283)">
<circle cx="34" cy="30" r="30" fill="#DDF4F4"/>
<path d="M12.8729 17.2105C12.8729 17.2105 13.1998 18.5181 13.0364 18.845C12.8729 19.1719 12.8729 19.1719 12.8729 19.1719C12.8729 19.1719 12.8729 18.845 12.219 18.3547C11.5652 17.8643 11.4834 17.4557 11.2383 17.6192C10.9931 17.7826 11.1565 20.2343 10.5027 22.0323C9.84881 23.8302 8.94975 25.8733 9.19495 26.7723C9.44015 27.6713 8.94975 28.9789 9.11322 29.3058C9.27668 29.6327 9.84881 31.6758 9.93054 32.4113C10.0123 33.1468 10.4209 33.8823 10.5844 34.6996C10.7479 35.5168 10.5844 36.2523 10.9113 36.5792C11.2383 36.9061 12.546 38.132 12.546 38.132L13.8537 40.4203L16.3056 40.5837L19.9019 43.2807L22.7625 43.6075L22.6808 42.7903C22.6808 42.7903 24.4789 42.5451 24.5606 42.9538C24.6423 43.4441 25.8683 44.67 25.8683 44.67C25.8683 44.67 25.8683 45.7324 26.3587 46.141C26.8491 46.4679 27.8299 47.2034 27.8299 47.2034C27.8299 47.2034 28.3203 45.6507 28.7289 45.8141C29.2193 45.9776 29.5462 46.141 29.8732 46.4679C30.2001 46.7131 30.6905 47.4486 30.9357 48.1841C31.1809 48.9196 31.8347 49.1648 31.8347 49.1648C31.9982 49.6552 31.9982 50.1455 32.1617 50.4724C32.4069 50.7993 32.8973 50.9628 33.2242 51.0445C33.5511 51.1262 34.0415 51.2079 34.205 51.2079C34.3684 51.2079 33.878 50.4724 33.878 50.1455C33.878 49.8186 33.9598 49.5734 33.9598 49.2465C33.9598 48.9196 34.0415 48.6745 34.205 48.511C34.3684 48.3476 34.5319 48.1841 34.8588 47.9389C35.1858 47.6938 35.431 47.6938 35.7579 47.4486C36.0848 47.2034 36.6569 46.7948 36.6569 46.5496C36.5752 46.3862 36.4935 45.9776 36.8204 46.0593C37.1473 46.2227 37.7195 45.8958 37.8829 45.8141C38.0464 45.7324 38.6185 45.8141 38.9454 45.8958C39.2724 45.9776 39.3541 45.6507 39.681 45.6507C40.008 45.6507 40.1714 45.8141 40.3349 45.9776C40.5801 46.141 40.9887 46.5496 41.1522 46.3862C41.3157 46.2227 41.7243 46.2227 41.7243 46.141C41.7243 46.0593 41.8061 45.6507 42.0513 45.8958C42.2965 46.141 42.7869 46.3862 42.7869 46.141C42.7869 45.8958 41.8878 45.4872 42.133 45.242C42.3782 44.9969 42.6234 44.7517 42.3782 44.7517C42.133 44.7517 41.0705 44.5882 41.3974 44.5065C41.7243 44.4248 42.4599 44.4248 42.8686 44.3431C43.2772 44.2613 43.5224 43.9344 44.0128 44.0162C44.5032 44.0979 45.1571 43.9344 45.3205 43.9344C45.8109 44.0162 46.2196 44.0979 46.3831 44.4248C46.5465 44.7517 46.9552 44.67 46.9552 44.67C47.3638 44.4248 47.6908 44.0162 48.0177 44.0979C48.3446 44.2613 48.835 44.8334 49.162 44.9969C49.4889 45.1603 49.7341 45.9776 49.7341 45.9776C49.7341 46.3862 49.9793 47.2034 50.061 47.3669C50.1427 47.5303 49.9793 47.2852 50.1427 47.5303C50.3062 47.7755 51.0418 48.511 51.0418 48.511C51.287 48.8379 51.9408 49.4917 51.9408 49.4917C52.186 49.7369 52.5947 49.9003 52.8399 49.7369C53.0851 49.5734 53.0851 49.5734 53.0851 49.5734C53.0851 49.5734 53.2486 48.9196 53.1668 48.4293C53.0851 47.9389 52.8399 47.1217 52.513 46.6314C52.186 46.141 52.2678 45.4872 51.7774 44.8334C51.287 44.1796 50.6331 42.9538 50.6331 42.3817C50.6331 41.8096 50.6331 40.8289 50.9601 40.3386C51.287 39.8482 51.8591 39.2762 52.1043 38.9493C52.3495 38.6224 52.4312 37.8868 52.7582 37.7234C53.0851 37.5599 53.3303 37.1513 53.412 36.9061C53.5755 36.661 53.739 36.3341 53.9842 36.1706C54.2293 36.0072 54.4745 35.8437 54.3928 35.6803C54.3111 35.5168 53.9024 35.1899 54.2293 35.0265C54.5563 34.863 55.0467 34.863 54.8832 34.5361C54.7197 34.2092 53.739 34.4544 54.0659 34.291C54.3928 34.0458 54.7197 34.1275 54.638 33.8006C54.5563 33.4737 54.5563 33.1468 54.3111 32.9834C54.0659 32.8199 53.6572 32.9016 53.739 32.6565C53.8207 32.4113 53.6572 31.9209 53.4938 31.6758C53.3303 31.4306 53.2486 31.2672 53.3303 31.022C53.412 30.7768 53.0034 29.8778 53.2486 29.7144C53.4938 29.5509 53.4938 30.4499 53.6572 30.6951C53.8207 30.9403 53.9024 31.1854 54.1476 31.1854C54.3928 31.1037 54.2293 31.5941 54.1476 31.8392C54.0659 32.0844 54.2293 32.493 54.3111 32.2478C54.3928 32.0027 54.5563 31.1854 54.638 30.8585C54.7197 30.5316 54.4745 30.2865 54.3111 29.9596C54.0659 29.7144 53.6572 29.0606 53.9842 29.224C54.3111 29.3875 54.638 29.8778 54.8015 29.5509C54.9649 29.3058 55.1284 28.9789 55.1284 28.4885C55.1284 27.9982 54.7197 27.753 54.8832 27.4261C55.0467 27.0992 55.3736 26.5271 55.7005 26.3637C56.0275 26.2002 56.5178 25.8733 56.763 25.7916C57.0082 25.6282 57.2534 25.3013 57.4986 25.2195C57.7438 25.0561 57.7438 24.8109 57.5804 24.5657C57.4169 24.3206 57.0082 24.3206 57.09 23.9937C57.1717 23.6668 56.8448 23.3399 57.0082 23.013C57.1717 22.6861 57.1717 22.0323 57.4169 21.8688C57.6621 21.7054 57.989 21.2968 58.1525 21.1333C58.316 20.8881 58.4794 20.643 58.8063 20.4795C59.0515 20.3161 59.4602 19.9892 59.3785 19.744C59.2967 19.4988 59.0515 19.3354 59.0515 19.3354C59.0515 19.3354 58.9698 19.0085 58.8063 18.9268C58.6429 18.845 58.3159 18.7633 58.3159 18.7633C58.3159 18.7633 57.989 17.374 57.7438 17.0471C57.4986 16.7202 57.4169 16.8019 57.1717 16.8836C56.9265 17.0471 56.6813 16.9654 56.5996 17.1288C56.4361 17.2923 56.1092 18.0278 56.1909 18.4364C56.2726 18.845 56.1092 19.4988 56.1092 19.8257C56.1092 20.1526 55.864 20.1526 55.6188 20.4795C55.3736 20.8064 55.1284 20.8881 54.8015 20.9699C54.4745 21.0516 52.8399 21.5419 52.6764 21.7054C52.513 21.8688 52.0226 22.7678 51.6956 23.013C51.3687 23.1764 51.1235 23.1764 51.2053 23.4216C51.287 23.6668 51.1235 23.6668 50.7149 23.7485C50.2245 23.8302 49.5706 24.3206 49.4072 24.6475C49.2437 24.9744 48.9168 25.3013 49.2437 25.3013C49.5706 25.2195 49.8975 25.2195 49.8158 25.383C49.7341 25.5464 49.0802 25.5464 48.835 25.8733C48.5898 26.1185 48.5898 26.0368 48.1812 26.2002C47.6908 26.3637 47.5273 26.5271 47.2821 26.9358C47.0369 27.2627 46.8735 27.5078 46.6283 27.5078C46.3831 27.5078 46.1379 27.4261 46.3831 27.0992C46.6283 26.7723 46.71 26.5271 46.71 26.2002C46.71 25.8733 47.0369 25.7099 47.0369 25.2195C46.9552 24.7292 46.9552 24.5657 46.9552 24.1571C46.9552 23.7485 46.6283 22.9313 46.9552 22.9313C47.2821 23.013 47.4456 23.4216 47.6908 23.4216C47.936 23.4216 48.3446 23.5033 48.2629 23.0947C48.1812 22.6861 47.609 21.9506 47.609 21.9506C47.609 21.9506 47.3638 21.7054 46.9552 21.7054C46.5465 21.7054 44.9936 21.9506 44.7484 21.8688C44.5032 21.7871 44.4215 21.2968 44.1763 21.215C43.9311 21.1333 43.8494 20.8881 43.7676 20.5612C43.6859 20.2343 43.5224 19.9892 43.1138 19.9074C42.7868 19.744 42.6234 19.0085 42.2965 19.1719C41.9695 19.3354 41.9695 19.6623 41.6426 19.3354C41.3157 19.0902 41.0705 19.2537 40.907 19.4988C40.6618 19.744 40.5801 20.0709 40.3349 20.2343C40.0897 20.4795 39.681 20.643 39.4358 20.5612C39.1906 20.4795 38.8637 20.2343 38.5368 20.3978C38.2916 20.5612 38.0464 20.643 37.8012 20.5612C37.556 20.3978 37.3108 20.2343 37.0656 20.2343C36.8204 20.2343 36.5752 20.2343 36.1665 20.1526C35.7579 20.0709 35.5944 20.0709 35.5127 19.9074C35.431 19.744 35.431 19.0085 35.2675 19.1719C35.104 19.3354 34.9406 19.744 34.9406 19.744C34.9406 19.744 27.9933 19.744 23.5798 19.0902C19.4115 18.3547 12.8729 17.2105 12.8729 17.2105Z" fill="#53BBBF"/>
<path d="M14.2647 31.9309C14.1656 31.9309 10.1025 26.6743 10.3998 24.0957C10.6971 21.8145 13.0755 20.5252 15.1566 21.1203C17.1387 21.7153 18.1297 23.5006 17.8324 25.0875C17.3369 27.6661 14.4629 31.9309 14.2647 31.9309Z" fill="#FF1700"/>
<path d="M49.1457 28.7222C49.0413 28.7222 44.8636 23.2912 45.1769 20.5757C45.4903 18.1736 47.8924 16.9203 50.0857 17.4425C52.1745 17.9647 53.1145 19.9491 52.8012 21.5157C52.279 24.2312 49.2502 28.7222 49.1457 28.7222Z" fill="#FF1700"/>
<path d="M14.4757 34.6372L14.0552 33.9017C14.1393 33.9017 15.1486 33.2479 17.0831 32.4306L17.4195 33.1662C15.5691 33.9834 14.4757 34.5555 14.4757 34.6372ZM20.5316 32.022L20.2793 31.2865C21.3727 30.9596 22.4661 30.6327 23.5595 30.3058L23.8119 31.1231C22.7184 31.2865 21.625 31.6134 20.5316 32.022ZM49.2129 31.2865C48.4559 31.0413 47.6148 30.8779 46.8578 30.6327L47.026 29.8155C47.8671 29.9789 48.6241 30.2241 49.4652 30.4693L49.2129 31.2865ZM27.008 30.3058L26.8398 29.4886C27.9332 29.2434 29.1107 29.0799 30.2042 28.9982L30.2883 29.8155C29.1948 29.8972 28.1014 30.0606 27.008 30.3058ZM43.5775 29.9789C42.4841 29.8155 41.3907 29.652 40.2973 29.5703L40.3814 28.753C41.4748 28.8348 42.6523 28.9982 43.7457 29.1617L43.5775 29.9789ZM33.6526 29.4886L33.5685 28.6713C34.6619 28.5896 35.8395 28.5896 36.9329 28.5896V29.4068C35.8395 29.4068 34.7461 29.4068 33.6526 29.4886Z" fill="#FF0000"/>
</g>
</svg>
