<svg width="68" height="60" viewBox="0 0 68 60" fill="none" xmlns="http://www.w3.org/2000/svg">
<mask id="mask0" style="mask-type:alpha" maskUnits="userSpaceOnUse" x="4" y="0" width="60" height="60">
<circle cx="34" cy="30" r="30" fill="#DDF4F4"/>
</mask>
<g mask="url(#mask0)">
<circle cx="34" cy="30" r="30" fill="#DDF4F4"/>
<path d="M58.7525 65.8888C57.9182 66.1272 56.4879 67.0807 53.1504 67.3191C47.31 67.7959 44.2109 65.0544 42.8998 63.1473C40.3968 59.0948 40.3968 52.7775 38.2513 45.3875C36.821 40.739 35.7482 39.0703 34.7947 34.541C33.7219 29.1773 33.3644 22.3832 33.0068 20.7145C32.53 18.3307 31.4573 16.4236 27.8815 15.7084C24.3057 14.9932 20.6107 17.0195 20.6107 17.0195C20.6107 17.0195 19.1803 19.4034 17.6308 20.9529C16.0813 22.5024 13.2207 21.4297 11.7904 22.1448C10.4792 22.86 11.552 27.2702 12.5055 28.7005C13.6975 30.25 15.4854 31.4419 18.4652 31.4419C21.445 31.4419 21.9218 34.3026 21.8026 35.8521C21.6834 37.64 17.6308 45.3875 17.75 50.1553C18.1076 57.9028 21.3258 66.2464 21.3258 66.2464C21.3258 66.2464 18.2268 67.0807 16.9157 68.0343C15.6046 68.8686 17.9884 71.9676 17.9884 71.9676C17.9884 71.9676 44.8069 71.8485 45.4029 71.8485C48.0251 71.7293 51.2433 71.3717 53.1504 70.5373C54.8191 69.703 58.1566 67.7959 58.9909 66.7231C59.9445 65.6504 58.9909 65.7696 58.7525 65.8888Z" fill="#C7C6B7"/>
<path d="M14.1743 21.5489C14.1743 21.5489 12.2672 25.1247 11.3136 24.5287C11.1944 24.4095 10.3601 22.1449 12.0288 21.3105C12.9823 20.9529 14.1743 21.5489 14.1743 21.5489Z" fill="#1E372A"/>
<path d="M28.7156 29.4156C28.358 29.4156 28.0004 29.2964 27.6429 29.1772C25.7358 28.4621 24.7822 26.555 24.7822 23.8135C24.7822 21.7873 25.259 19.9994 25.259 19.8802L25.6166 19.9994C25.6166 20.1185 23.5903 27.151 27.7621 28.8197C28.4772 29.058 29.1924 29.058 29.6692 28.7005C31.6954 27.2701 31.3379 21.4297 31.3379 21.3105H31.6954C31.6954 21.5489 32.053 27.5085 29.9075 29.058C29.55 29.2964 29.1924 29.4156 28.7156 29.4156Z" fill="#84816A"/>
<path d="M20.1338 21.0721C20.4914 20.8337 21.0873 21.7873 20.7297 21.9064C20.253 22.1448 19.657 21.1913 20.1338 21.0721Z" fill="#1E372A"/>
<path d="M15.7238 24.052C15.843 24.1711 15.9622 24.2903 15.843 24.4095C15.7238 24.5287 15.3662 24.5287 15.3662 24.2903C15.3662 24.1711 15.6046 23.9328 15.7238 24.052Z" fill="#84816A"/>
<path d="M16.5583 25.2439C16.6775 25.3631 16.7966 25.4823 16.6775 25.6015C16.5583 25.7207 16.2007 25.7207 16.2007 25.4823C16.2007 25.3631 16.4391 25.1247 16.5583 25.2439Z" fill="#84816A"/>
<path d="M14.7702 25.9591C14.8894 26.0783 15.0086 26.1975 14.8894 26.4358C14.7702 26.555 14.4127 26.555 14.2935 26.3166C14.2935 26.0783 14.651 25.8399 14.7702 25.9591Z" fill="#84816A"/>
<path d="M21.3257 33.349C21.3257 33.349 21.3257 34.6602 21.5641 35.1369C21.6833 35.3753 24.4247 35.3753 27.6429 34.8986C31.9339 34.3026 34.7945 33.7066 34.9137 33.349C35.0329 32.7531 34.6753 31.442 34.6753 31.442C34.6753 31.442 30.8612 32.3955 27.5237 32.8723C25.3783 33.1107 21.3257 33.349 21.3257 33.349Z" fill="#FF0000"/>
<path d="M21.3259 37.9976C20.9683 37.9976 20.6107 37.8784 20.3723 37.7592C20.0148 37.5208 19.7764 37.1632 19.7764 36.6864C19.7764 36.0905 19.8956 35.6137 20.2531 35.2561C20.6107 34.8985 21.0875 34.7793 21.5643 34.7793C22.5178 34.8985 22.8754 35.6137 22.8754 36.3288C22.9946 37.044 22.637 37.64 22.041 37.8784C21.8027 37.9976 21.5643 37.9976 21.3259 37.9976ZM21.3259 35.2561C20.9683 35.2561 20.7299 35.3753 20.4915 35.6137C20.2531 35.8521 20.1339 36.0905 20.1339 36.6864C20.1339 37.044 20.2531 37.2824 20.4915 37.4016C20.8491 37.64 21.4451 37.64 21.8027 37.5208C22.1602 37.4016 22.3986 36.9248 22.2794 36.448C22.2794 35.9713 21.9218 35.3753 21.3259 35.2561C21.3259 35.2561 21.4451 35.2561 21.3259 35.2561Z" fill="#84816A"/>
<path d="M24.4249 72.4444C23.1137 69.9414 24.3057 69.2262 26.2128 68.0343C26.332 67.9151 26.5703 67.7959 26.6895 67.6767C25.2592 64.3393 25.2592 59.4524 26.332 56.9493C27.8815 53.1351 35.1523 55.1614 35.5098 55.2806L35.3907 55.6382C35.2715 55.6382 28.1199 53.6119 26.6895 57.0685C25.736 59.5716 25.6168 64.3393 27.1663 67.5575L27.2855 67.6767L27.1663 67.7959C26.9279 67.9151 26.6895 68.0343 26.4512 68.2727C24.5441 69.4646 23.7097 69.9414 24.7824 72.2061L24.4249 72.4444Z" fill="#84816A"/>
<path d="M33.2525 67.7281C33.1288 67.3569 31.6441 62.4078 31.8915 58.3247C32.2627 53.4993 33.6237 50.2824 36.8407 47.5604C41.6661 43.4774 43.2745 41.4977 43.0271 37.7859C47.8525 38.2808 53.544 38.0333 53.544 38.0333C53.544 38.0333 54.905 41.4977 54.6575 46.4468C54.41 51.396 54.1626 64.8823 54.1626 64.8823C54.1626 64.8823 55.8948 66.1196 55.7711 67.6043C55.7711 67.8518 54.7812 67.8518 53.049 67.8518C51.3168 67.8518 33.2525 67.7281 33.2525 67.7281Z" fill="#3B8E90"/>
<path d="M49.0897 25.908C47.8525 25.908 44.1406 26.6504 42.6559 28.2588C40.5525 30.6097 40.4288 33.8266 41.666 35.8062C43.0271 37.9096 44.3881 40.2605 48.8423 40.3842C52.3067 40.5079 55.0287 38.4045 56.0185 36.7961C57.0083 35.1876 57.8744 32.9605 57.2558 30.8571C56.266 27.7639 51.8118 26.0317 49.0897 25.908Z" fill="#3B8E90"/>
<path d="M41.1711 31.1045C41.0474 30.7333 39.8101 24.9181 41.666 22.9385C44.6355 24.1758 46.7389 27.5164 46.7389 27.5164L41.1711 31.1045Z" fill="#3B8E90"/>
<path d="M57.1317 30.9808C57.2555 30.6097 58.4927 24.7944 56.6368 22.8148C53.6673 24.0521 51.564 27.3927 51.564 27.3927L57.1317 30.9808Z" fill="#3B8E90"/>
<path d="M24.0966 40.8791C24.2203 41.6215 25.0864 41.1266 26.3237 41.0028C28.1796 40.8791 29.6643 41.0028 30.1593 43.4774C30.7779 45.9519 30.283 48.0553 28.3033 50.9011C25.705 54.6129 24.7152 56.9638 24.7152 58.4485C24.7152 61.6654 25.705 63.5213 27.1898 64.6349C28.4271 65.6247 30.1593 65.8722 31.5203 65.8722C33.2525 65.8722 33.9948 65.1298 33.9948 65.1298L33.005 62.6553C33.005 62.6553 30.9016 63.5213 28.4271 62.1603C26.8186 61.2942 26.5711 58.201 27.561 56.0977C28.6745 53.7468 31.2728 50.5299 31.8915 48.7977C32.7575 46.4469 33.005 44.5909 31.5203 41.4977C30.6542 39.6418 28.922 38.8994 27.1898 38.8994C25.705 39.1469 23.8491 39.6418 24.0966 40.8791Z" fill="#3B8E90"/>
<path d="M49.9557 67.8518L49.5845 54.7366H49.9557L50.4506 67.8518H49.9557Z" fill="#3B646E"/>
<path d="M47.1101 67.8518C46.9864 67.8518 46.9864 67.8518 47.1101 67.8518C46.9864 67.8518 46.8626 67.7281 46.8626 67.6044C46.9864 66.862 46.9864 65.8722 46.244 65.0061C45.6253 64.2637 44.6355 63.8926 43.1508 63.8926C43.0271 63.8926 43.0271 63.8925 42.9033 63.7688C42.9033 63.6451 42.9033 63.6451 43.0271 63.5214C44.7593 62.1604 45.2542 60.1807 44.5118 57.8299C43.8932 55.9739 42.7796 54.6129 42.7796 54.6129C42.6559 54.4892 42.7796 54.3655 42.7796 54.3655H43.0271C43.0271 54.3655 47.3575 59.8095 43.6457 63.5214C44.883 63.6451 45.8728 64.0163 46.4914 64.7586C47.3575 65.7485 47.2338 66.9858 47.2338 67.6044C47.2338 67.8519 47.1101 67.8518 47.1101 67.8518Z" fill="#3B646E"/>
<path d="M45.5016 31.1046C45.0067 31.2283 45.1304 32.4656 45.6253 32.3419C46.2439 32.2182 46.1202 30.9809 45.5016 31.1046Z" fill="#1D2820"/>
<path d="M52.3068 31.1046C51.8118 31.2283 51.9356 32.4656 52.4305 32.3419C52.9254 32.2182 52.8017 30.9809 52.3068 31.1046Z" fill="#1D2820"/>
<path d="M49.0897 33.8266C48.3474 33.8266 48.2236 34.1978 48.2236 34.3215C48.2236 34.6927 49.0897 35.0639 49.0897 35.0639C49.0897 35.0639 49.9558 34.569 49.9558 34.3215C49.8321 34.0741 49.3372 33.8266 49.0897 33.8266Z" fill="#1D2820"/>
<path d="M55.2761 34.3215L55.1523 33.8266L58.7405 33.3317V33.7028L55.2761 34.3215Z" fill="#3B646E"/>
<path d="M58.9879 35.8062L55.1523 35.1876L55.2761 34.6927L59.1116 35.435L58.9879 35.8062Z" fill="#3B646E"/>
<path d="M44.017 34.4452L39.6865 33.8265L39.8102 33.4554L44.1407 34.074L44.017 34.4452Z" fill="#3B646E"/>
<path d="M44.063 34.7093L39.9819 36.1583L40.1475 36.6247L44.2286 35.1757L44.063 34.7093Z" fill="#3B646E"/>
<path d="M41.1709 30.9809C41.1709 31.1046 41.1709 31.1046 41.1709 31.1046L46.7387 27.5165C46.7387 27.5165 46.4912 27.1453 45.9963 26.5266C44.759 26.8978 43.398 27.5165 42.6556 28.3826C41.9133 29.1249 41.4184 29.991 41.1709 30.9809Z" fill="#348484"/>
<path d="M52.1826 26.5266C51.8114 27.0216 51.564 27.3927 51.564 27.3927L57.1317 30.9809V30.8571C56.6368 28.7537 54.4097 27.3927 52.1826 26.5266Z" fill="#348484"/>
<path d="M48.7185 42.2401C45.5016 42.2401 42.4084 40.3842 42.2847 40.3842L42.6559 39.8893C42.6559 39.8893 45.7491 41.7452 48.8423 41.7452C53.049 41.7452 54.9049 40.3842 54.9049 40.3842L55.2761 40.8791C55.1524 40.8791 53.1728 42.2401 48.7185 42.2401Z" fill="#FCF79B"/>
<path d="M48.5949 43.1062C48.5949 42.9825 47.3576 42.2401 46.9865 42.9825C46.3678 44.096 48.3475 45.7045 48.3475 45.7045C48.3475 45.7045 50.0796 44.7147 50.3271 43.8486C50.4508 43.3536 50.0797 42.4875 48.5949 43.1062Z" fill="white"/>
<path d="M48.7186 43.4774H48.4712V41.7452H48.8424L48.7186 43.4774Z" fill="#3B646E"/>
</g>
</svg>
