<svg width="68" height="60" viewBox="0 0 68 60" fill="none" xmlns="http://www.w3.org/2000/svg">
<mask id="mask0" style="mask-type:alpha" maskUnits="userSpaceOnUse" x="4" y="0" width="60" height="60">
<circle cx="34" cy="30" r="30" fill="#DDF4F4"/>
</mask>
<g mask="url(#mask0)">
<circle cx="34" cy="30" r="30" fill="#DDF4F4"/>
<path d="M28.4885 64.708C28.4885 63.0979 27.7985 60.4528 27.4534 56.6577C27.1084 53.6675 26.3034 43.4321 26.0734 40.672C25.7284 37.9119 25.4984 33.1967 26.4184 31.2416C27.6835 28.4815 30.2136 27.1014 31.4786 26.5264C32.7437 25.9514 32.3987 26.0664 32.3987 26.0664C32.3987 26.0664 32.1686 16.751 32.0536 15.8309C32.0536 14.9109 32.0536 14.3359 32.0536 14.3359C32.0536 14.3359 33.7787 14.1059 34.9288 14.1059C36.0788 14.1059 36.6538 14.4509 36.6538 14.4509C36.6538 14.4509 37.1139 16.291 37.1139 17.556C37.1139 18.8211 37.3439 25.9514 37.3439 26.2964C37.3439 26.6414 41.714 28.0215 42.6341 29.2865C44.3592 31.8166 43.7841 35.2668 44.0141 38.3719C44.2442 41.477 43.5541 52.2875 43.5541 55.1626C43.5541 57.9227 43.2091 64.823 43.2091 64.823L28.4885 64.708Z" fill="#245A47"/>
<path d="M36.8839 14.3359C37.4589 15.0259 32.0537 15.3709 32.0537 14.3359C32.0537 13.8759 33.2038 13.6458 34.5838 13.6458C35.8489 13.6458 36.6539 13.9909 36.8839 14.3359Z" fill="#418066"/>
<path d="M37.3437 41.132L26.0732 41.362L27.3383 55.5076L37.3437 55.2776V41.132Z" fill="#457363"/>
<path d="M36.6539 14.5659C36.6539 14.4509 36.6539 14.4509 36.6539 14.4509C36.6539 14.4509 36.0789 14.1059 34.9288 14.1059C33.7788 14.1059 32.1687 14.3359 32.0537 14.3359C32.1687 15.1409 35.7339 15.0259 36.6539 14.5659Z" fill="#144630"/>
<path d="M8.29688 34.9139C8.29688 34.9139 8.61522 35.4445 9.1458 36.1873C11.5865 39.4769 19.2268 48.3906 19.2268 48.3906C19.2268 48.3906 31.2179 35.6567 31.0057 35.2323C31.0057 35.1261 30.1567 35.2323 28.8833 35.1261C24.6387 34.9139 13.0721 34.8078 9.46415 34.8078C8.82745 34.9139 8.29688 34.9139 8.29688 34.9139Z" fill="#A1D8D9"/>
<path d="M18.4839 61.7612C18.4839 56.7738 18.59 44.9949 18.9084 44.3582L20.2879 44.4643C20.1817 45.2071 19.9695 55.0759 19.9695 61.549L18.4839 61.7612Z" fill="#A1D8D9"/>
<path d="M12.5416 38.4158C15.3006 42.0237 18.8024 46.5867 19.1208 46.5867C19.5453 46.4806 24.2144 41.2809 26.655 38.7341C26.7611 38.628 26.7611 38.4158 26.655 38.4158C23.3654 38.3096 16.8924 38.2035 12.7538 38.2035C12.6477 38.0974 12.4355 38.2035 12.5416 38.4158Z" fill="#F8F6EA"/>
<path d="M21.2429 42.8726L13.2842 31.306L13.7086 31.0938L21.6673 42.5543L21.2429 42.8726Z" fill="#00838A"/>
<path d="M17.529 38.8402C17.4229 39.1585 17.3168 39.6891 17.7412 40.6442C18.0596 41.2809 18.8024 42.0237 19.7574 41.9176C20.7125 41.8114 21.243 40.538 21.1369 39.7952C21.0308 39.0524 20.7125 38.3096 19.8635 37.8851C18.6963 37.4607 17.8473 38.0974 17.529 38.8402Z" fill="#004E13"/>
<path d="M48.2714 35.4832C48.2714 35.4832 42.9237 39.494 42.8022 39.8586C42.6806 40.2232 42.6806 40.4663 42.6806 42.0463C42.6806 47.5156 42.6806 60.7634 42.6806 61.6142C42.6806 63.4373 42.5591 63.5588 42.5591 63.5588L59.0884 63.3157C59.0884 63.3157 59.4531 62.3434 59.4531 61.4926C59.4531 58.8188 59.4531 53.3495 59.5746 51.1618C59.6961 49.2171 59.5746 40.8309 59.4531 40.3448C59.3315 39.8586 56.293 37.3063 53.8623 35.1186C53.6192 34.0247 53.2546 29.0416 53.2546 29.0416H48.2714V35.4832Z" fill="#D7662E"/>
<path d="M51.3098 43.5048C53.4975 43.6264 55.8068 44.3556 56.7791 45.8141C56.9006 47.3941 57.0222 56.0234 57.0222 56.0234L45.5975 55.9019C45.5975 55.9019 45.4759 47.2725 45.5975 46.0571C45.719 44.9633 49.0006 43.3833 51.3098 43.5048Z" fill="#AE5021"/>
<path d="M48.2714 30.3785L48.0283 22.3569L53.2545 22.4785L53.3761 30.1355L48.2714 30.3785ZM48.636 22.9646L48.8791 29.7708L52.7684 29.6493L52.6468 23.0862L48.636 22.9646Z" fill="#AAA791"/>
<path d="M47.542 20.6554L47.6635 24.7877H54.2267C54.2267 24.7877 54.4697 21.02 54.2267 20.7769C53.9836 20.5338 47.542 20.6554 47.542 20.6554Z" fill="#1E372A"/>
</g>
</svg>
