<svg width="68" height="60" viewBox="0 0 68 60" fill="none" xmlns="http://www.w3.org/2000/svg">
<mask id="mask0" style="mask-type:alpha" maskUnits="userSpaceOnUse" x="4" y="0" width="60" height="60">
<circle cx="34" cy="30" r="30" fill="#DDF4F4"/>
</mask>
<g mask="url(#mask0)">
<circle cx="34" cy="30" r="30" fill="#DDF4F4"/>
<g clip-path="url(#clip0)">
<path d="M59.4086 32.1184L59.9274 60.2548L37.4123 60.981L36.686 33.7785C36.686 33.7785 47.3729 24.1292 48.2029 24.4404C49.033 24.8555 59.4086 32.1184 59.4086 32.1184Z" fill="#3B8E90"/>
<path opacity="0.4" d="M48.9293 29.6282C49.8631 29.9395 50.2781 30.562 50.3819 31.2883C50.4856 32.0146 50.0706 33.3634 48.9293 33.6747C47.9955 33.9859 46.9579 33.5709 46.4391 33.0521C45.8166 32.4296 45.8166 31.2883 46.2316 30.4582C46.6467 29.6282 48.0992 29.3169 48.9293 29.6282Z" fill="#47A6AB"/>
<path d="M48.6179 31.8071H48.0991C48.0991 31.7033 48.3066 26.8268 47.4766 21.9503C46.024 22.1578 44.5714 21.9503 43.2226 21.3278C40.4212 19.8752 38.4498 15.6212 39.0723 13.4423C39.2799 12.5085 40.0061 11.9897 41.0437 11.9897C42.4963 12.0935 43.7414 12.6123 44.7789 13.7536C46.439 15.5174 47.3728 18.4226 47.8916 21.3278C48.3066 21.224 48.7216 21.0165 49.1367 20.9127C51.523 19.8752 53.3906 17.5925 53.5982 16.7625L54.1169 16.8662C53.9094 17.8 52.0418 20.0827 49.3442 21.3278C48.8254 21.5353 48.4104 21.7428 47.8916 21.8465C48.8254 26.7231 48.6179 31.4958 48.6179 31.8071ZM40.9399 12.5085C40.2137 12.5085 39.7986 12.8198 39.5911 13.5461C39.0723 15.5174 41.0437 19.5639 43.5338 20.809C44.7789 21.4315 46.1277 21.639 47.4766 21.4315C46.9578 18.5263 46.024 15.8287 44.4676 14.1686C43.4301 13.131 42.2888 12.6123 40.9399 12.5085Z" fill="#EE3A24"/>
</g>
<path d="M20.6118 25.8657C21.2676 25.6034 21.661 24.2918 22.1857 24.423C22.7103 24.5541 23.8907 25.4722 24.1531 25.4722C24.5465 25.3411 25.8581 23.3737 26.3828 23.7672C26.9074 24.0295 27.3009 24.9476 27.8255 24.9476C28.3501 25.0788 29.6617 23.8983 30.4487 24.423C31.2356 24.9476 31.2356 26.2592 31.7603 26.2592C32.2849 26.2592 35.0392 25.6034 35.1704 26.2592C35.3016 26.915 35.3016 28.2266 35.695 28.3577C36.0885 28.4889 37.6624 28.62 38.0559 29.0135C38.3182 29.5382 38.187 30.8497 38.4494 31.1121C38.7117 31.3744 40.8102 32.5548 40.8102 32.5548L40.4167 35.178C40.4167 35.178 41.8595 35.7026 42.1218 36.2272C42.3841 36.7519 41.466 37.8012 41.5972 38.1946C41.7283 38.5881 42.6464 40.4243 42.6464 40.8178C42.6464 41.2113 41.5972 42.1294 41.5972 42.5229C41.5972 42.9163 42.1218 44.2279 42.1218 44.7526C42.1218 45.2772 40.5479 46.1953 40.4167 46.4576C40.2856 46.7199 40.8102 48.6873 40.5479 49.0808C40.2856 49.4743 38.3182 49.7366 38.4494 50.1301C38.5805 50.5235 38.3182 52.3598 37.9247 52.7532C37.5313 53.1467 35.8262 52.3598 35.4327 52.8844C35.0392 53.409 34.7769 55.2453 34.3834 55.2453C33.99 55.3764 32.2849 54.3271 32.0226 54.9829C31.7603 55.5076 30.9733 56.9503 30.3175 56.8192C29.6617 56.688 28.0878 56.1634 28.0878 56.1634C28.0878 56.1634 26.3828 57.2126 25.9893 57.2126C25.4646 57.2126 24.2842 55.901 24.2842 55.901C24.2842 55.901 21.7922 57.2126 21.3987 56.688C20.8741 56.1634 20.3495 55.2453 20.2183 54.8518C20.0871 54.4583 18.1197 55.7699 17.7263 55.2453C17.2016 54.7206 16.9393 53.2779 16.8082 52.7532C16.677 52.2286 14.5785 52.7532 14.3161 52.0974C14.0538 51.5728 13.9227 50.2612 13.7915 49.8678C13.6604 49.4743 11.9553 49.212 11.8241 48.6873C11.5618 48.1627 12.2176 46.8511 11.9553 46.3265C11.693 45.8018 10.2502 45.4084 10.1191 44.6214C9.9879 43.8345 10.7749 42.9163 10.7749 42.5229C10.906 42.1294 9.72559 40.5555 9.72559 40.0308C9.72559 39.5062 10.906 38.1946 10.906 38.1946C10.906 38.1946 9.9879 36.6207 10.2502 35.9649C10.3814 35.4403 11.693 34.6533 11.9553 34.2599C12.0864 33.9975 11.693 32.0302 12.2176 31.6367C12.7422 31.1121 14.0538 31.1121 14.3161 30.7186C14.5785 30.3251 14.0538 28.8824 14.7096 28.4889C15.3654 28.0954 16.677 28.3577 16.9393 27.9643C17.2016 27.5708 17.2016 25.7346 17.9886 25.6034C18.5132 25.7346 20.4806 25.8657 20.6118 25.8657Z" fill="#FF0000"/>
<path d="M23.628 47.6379L22.9722 47.3756L28.8743 31.7677L29.5301 32.03L23.628 47.6379Z" fill="white"/>
<path d="M30.9732 46.326C30.9732 46.326 30.842 46.326 30.7109 46.326C29.7928 46.326 29.137 45.8014 28.8747 45.0144C28.4812 44.0963 28.6123 42.7847 29.2681 41.9978C29.6616 41.4732 30.4486 41.342 31.1043 41.4731C32.0225 41.7355 32.6783 42.3913 32.9406 43.047C33.2029 43.9652 33.0717 44.8833 32.5471 45.5391C32.4159 45.9325 31.8913 46.326 30.9732 46.326ZM29.7928 42.5224C29.2681 43.047 29.137 44.0963 29.3993 44.7521C29.5304 45.1456 29.9239 45.5391 30.7109 45.6702C31.3667 45.6702 31.7601 45.5391 32.0225 45.1456C32.4159 44.7521 32.4159 44.0963 32.2848 43.3094C32.1536 42.7847 31.629 42.2601 30.9732 42.1289C30.7109 42.1289 30.1862 42.1289 29.7928 42.5224Z" fill="white"/>
<path d="M21.399 38.7191C21.399 38.7191 21.2678 38.7191 21.1367 38.7191C20.2185 38.7191 19.5628 38.1944 19.3004 37.4075C18.907 36.4894 19.0381 35.1778 19.6939 34.3908C20.0874 33.8662 20.8743 33.735 21.5301 33.8662C22.4482 34.1285 23.104 34.7843 23.3664 35.4401C23.6287 36.3582 23.4975 37.2763 22.9729 37.9321C22.8417 38.3256 22.3171 38.7191 21.399 38.7191ZM20.3497 34.9155C19.8251 35.4401 19.6939 36.4894 19.9562 37.1452C20.0874 37.5386 20.4809 37.9321 21.2678 38.0633C21.9236 38.0633 22.3171 37.9321 22.5794 37.5386C22.9729 37.1451 22.9729 36.4894 22.8417 35.7024C22.7106 35.1778 22.1859 34.6531 21.5301 34.522C21.2678 34.522 20.7432 34.522 20.3497 34.9155Z" fill="white"/>
<path d="M38.0559 52.4905C38.4494 52.2282 38.5805 50.392 38.5805 49.8674C38.5805 49.3427 40.4168 49.2116 40.6791 48.8181C40.9414 48.4246 40.4168 46.5884 40.5479 46.1949C40.6791 45.9326 42.253 44.8833 42.253 44.4899C42.253 43.9652 41.7283 42.6537 41.7283 42.2602C41.7283 41.8667 42.7776 40.9486 42.7776 40.5551C42.7776 40.1616 41.7283 38.3254 41.7283 37.9319C41.5972 37.5385 42.5153 36.6203 42.253 35.9646C41.9907 35.4399 40.5479 34.9153 40.5479 34.9153L40.9414 32.2921C40.9414 32.2921 40.4168 32.0298 39.8921 31.6363C38.0559 33.2102 36.8755 34.3907 36.8755 34.3907L37.4001 52.4905C37.6624 52.6217 37.9248 52.6217 38.0559 52.4905Z" fill="#DA260D"/>
</g>
<defs>
<clipPath id="clip0">
<rect width="49.8418" height="49.8418" fill="white" transform="translate(23.5332 9.22073)"/>
</clipPath>
</defs>
</svg>
