<svg width="68" height="60" viewBox="0 0 68 60" fill="none" xmlns="http://www.w3.org/2000/svg">
<mask id="mask0" style="mask-type:alpha" maskUnits="userSpaceOnUse" x="4" y="0" width="60" height="60">
<circle cx="34" cy="30" r="30" fill="#DDF4F4"/>
</mask>
<g mask="url(#mask0)">
<circle cx="34" cy="30" r="30" fill="#DDF4F4"/>
<path d="M41.6771 31.8017C40.4749 31.4738 32.934 26.8837 33.4804 25.0257C34.0269 23.1678 36.2127 24.0421 36.2127 24.0421C36.2127 24.0421 35.8848 20.4356 37.087 20.4356C38.2892 20.4356 40.3657 22.5121 40.3657 22.5121C40.3657 22.5121 40.2564 17.1569 41.7864 18.0312C43.3165 18.9055 42.9886 21.3099 43.9722 21.3099C44.8465 21.3099 46.923 18.5777 47.7973 19.7798C48.6717 20.982 48.7809 25.135 47.9066 26.9929C47.0323 28.8509 44.4094 33.0039 44.4094 33.0039L41.6771 31.8017Z" fill="#FF3008"/>
<path d="M49.1692 35.2054C48.8544 34.8907 51.5829 30.9044 52.3175 30.0652C52.9472 29.2259 54.9411 27.4426 55.9906 27.4426C57.04 27.4426 61.3427 27.3377 61.7625 27.6524C62.0773 27.9671 60.713 30.6946 59.6636 31.5338C58.6142 32.373 56.3054 34.3662 54.4164 34.576C52.5274 34.7858 49.484 35.5201 49.1692 35.2054Z" fill="#004C52"/>
<path d="M43.8615 20.0988C43.5743 19.4077 43.4428 16.4905 45.7933 14.8654C46.5 14.3556 48.5501 13.8279 50.8851 12.4253C52.8705 11.2221 56.2609 13.9197 56.812 15.6359C57.363 17.3521 56.8244 18.6565 55.8173 20.2638C54.8102 21.871 52.6589 23.8456 51.1575 24.5235C49.2109 25.1703 44.5317 21.7115 43.8615 20.0988Z" fill="#EDB9B5"/>
<path d="M48.9718 30.1865C46.7614 29.8082 43.4746 27.2297 42.5717 24.1468C41.6689 21.0639 42.3374 16.3013 44.4988 15.7814C46.6602 15.2615 50.4312 17.3147 51.1869 17.703C52.0462 18.2105 53.4752 16.9683 54.2776 16.6889C55.5408 16.218 58.4268 16.5316 58.7062 17.3341C59.2651 18.939 56.1915 26.1058 55.1922 27.6017C53.4059 29.1544 50.5223 30.4068 48.9718 30.1865Z" fill="#F9D0CC"/>
<path d="M51.0541 24.4045C52.5555 23.7266 54.7145 21.6407 55.7139 20.1448C56.5864 18.8637 56.9981 17.774 56.8611 16.5342C55.9785 16.3606 54.8577 16.3941 54.1666 16.6813C53.4754 16.9685 52.0542 18.0994 51.0759 17.6954C50.3201 17.3071 46.9788 15.5076 44.8407 15.6936C43.3806 17.381 43.4476 19.6226 43.7503 20.0911C44.5318 21.7116 49.211 25.1704 51.0541 24.4045Z" fill="#F6DBD9"/>
<path d="M47.7184 54.7068C47.3467 39.8371 42.8857 29.8 42.8857 29.6761L43.5053 29.4283C43.5053 29.5522 48.0901 39.7131 48.4619 54.7068H47.7184Z" fill="#28362C"/>
<path d="M49.2479 26.9582L48.1943 56.9275L48.8135 56.9492L49.8671 26.98L49.2479 26.9582Z" fill="#28362C"/>
<path d="M38.3765 38.9029C38.6398 39.7457 46.053 68.881 46.053 68.881L51.761 68.7606L57.5151 38.6621L38.3765 38.9029Z" fill="#C3A289"/>
<path d="M12.8735 64.8245C15.0522 65.2978 39.7958 64.8245 39.7958 64.8245L39.329 41.1549L12.8735 40.9971V64.8245Z" fill="#004C52"/>
<path d="M10.4697 36.4932V44.6913L41.238 44.8432V36.1896L10.4697 36.4932Z" fill="#1F6167"/>
<path d="M26.0813 36.6474C26.0813 36.6474 22.1213 35.9066 20.5079 35.6103C17.8679 35.1659 15.0812 33.0916 14.3478 31.1656C14.0545 30.2767 14.2012 29.3877 14.7878 28.7951C15.5212 27.9061 16.5479 27.4617 17.5745 27.6098C20.9479 27.9061 24.3213 32.7953 24.468 32.9435L26.228 36.0548C26.228 36.203 26.228 36.3511 26.228 36.4993C26.3746 36.4993 26.228 36.6474 26.0813 36.6474ZM17.4279 28.2025C16.6945 28.2025 15.9612 28.4988 15.3745 29.2396C14.9345 29.684 14.9345 30.2767 15.0812 30.8693C15.6679 32.6472 18.1612 34.4251 20.6546 34.8695C21.8279 35.0177 24.1746 35.4622 25.348 35.7585L23.8813 33.388C23.7346 33.0916 20.5079 28.4988 17.5745 28.3506C17.5745 28.2025 17.5745 28.2025 17.4279 28.2025Z" fill="#DBA7A5"/>
<path d="M25.8043 36.6474C25.6301 36.6474 25.6301 36.6474 25.4559 36.4861C25.2817 36.3248 25.2817 36.1634 25.2817 36.1634C25.2817 36.0021 25.9785 32.7754 26.6753 31.4847C26.8495 30.8394 28.2431 27.9353 30.3334 27.6127C31.2044 27.4513 31.9012 27.9353 32.598 28.742C33.1206 29.3874 33.469 30.0327 33.2948 30.8394C33.1206 32.13 31.9012 33.4207 29.6367 34.7114C27.7205 35.8408 26.1527 36.4861 25.9785 36.6474C25.8043 36.6474 25.8043 36.6474 25.8043 36.6474ZM30.5076 28.4193C29.1141 28.5807 27.8947 30.678 27.3721 31.8074C27.0237 32.6141 26.5011 34.3887 26.3269 35.5181C27.0237 35.1954 28.0689 34.7114 28.9399 34.0661C31.0302 32.7754 32.0754 31.646 32.2496 30.678C32.4238 30.194 32.2496 29.71 31.727 29.226C31.3786 28.742 31.0302 28.4193 30.5076 28.4193Z" fill="#DBA7A5"/>
<path d="M20.5202 41.6674C17.8732 41.6674 15.6934 39.9547 15.5377 39.9547C15.382 39.799 15.382 39.6433 15.5377 39.4876C15.6934 39.3319 15.8491 39.3319 16.0048 39.4876C16.0048 39.4876 19.5859 42.1345 22.5443 40.5775C24.5684 39.6433 25.3469 36.3735 25.3469 36.3735C25.3469 36.2178 25.6583 36.0621 25.814 36.0621C25.9697 36.0621 26.1255 36.3735 26.1255 36.5292C26.1255 36.6849 25.3469 40.1104 22.8557 41.356C22.2329 41.5117 21.2987 41.6674 20.5202 41.6674Z" fill="#DBA7A5"/>
<path d="M26.1253 64.5556C25.9695 64.5556 25.8138 64.3999 25.8138 64.2442L25.5024 36.6849C25.5024 36.5292 25.6581 36.3735 25.8138 36.3735C25.9695 36.3735 26.1253 36.3735 26.281 36.5292C26.7481 37.7748 28.3051 40.8888 29.8621 41.356C33.599 42.4459 35.156 38.709 35.3117 38.3976C35.4674 38.2419 35.6231 38.0862 35.7788 38.2419C35.9345 38.3976 36.0902 38.5533 35.9345 38.709C35.9345 38.709 33.9104 43.2244 29.5507 41.9788C28.3051 41.6674 27.0595 39.7989 26.281 38.3976L26.5924 64.2442C26.5924 64.3999 26.4367 64.5556 26.1253 64.5556Z" fill="#DBA7A5"/>
</g>
</svg>
