<svg width="60" height="60" viewBox="0 0 60 60" fill="none" xmlns="http://www.w3.org/2000/svg">
<mask id="mask0" style="mask-type:alpha" maskUnits="userSpaceOnUse" x="0" y="0" width="60" height="60">
<circle cx="30" cy="30" r="30" fill="#DDF4F4"/>
</mask>
<g mask="url(#mask0)">
<circle cx="30" cy="30" r="30" fill="#DDF4F4"/>
<path d="M38.6318 50.3052L38.7203 52.162L42.4339 52.0736V50.2168L38.6318 50.3052Z" fill="#BFBEAD"/>
<path d="M28.7295 50.3931L28.9063 52.3383L32.5315 52.2499L32.6199 50.3047L28.7295 50.3931Z" fill="#BFBEAD"/>
<path d="M41.3732 15.0257C41.3732 15.0257 45.6173 15.0257 45.7058 15.5562C45.8826 16.4404 44.91 26.1665 44.0258 26.4318C43.1416 26.697 41.1079 26.6086 41.1079 26.6086L41.0195 28.1117C41.0195 28.1117 45.0868 28.2886 45.7942 27.7581C46.3247 27.4044 47.3857 15.9983 47.651 15.2025C47.7394 14.7604 47.651 13.8762 45.7942 13.6994C43.9374 13.5226 41.4616 13.611 41.4616 13.611L41.3732 15.0257Z" fill="#B0E1E6"/>
<path d="M27.4922 13.3457C27.4922 13.3457 28.0227 26.4318 28.288 28.9075C28.3764 29.7917 29.349 34.0358 29.349 34.0358L41.1088 33.9474C41.1088 33.9474 41.993 29.7917 42.1698 28.6422C42.7887 25.1055 42.8772 13.5225 42.8772 13.5225L27.4922 13.3457Z" fill="#B0E1E6"/>
<path d="M28.2873 50.3932C28.2873 50.3932 44.026 50.5701 44.026 50.2164C44.026 50.2164 42.8765 41.1092 42.5228 39.6061C42.1691 38.1029 41.1965 35.804 40.9313 35.6272L29.3483 35.5388C28.8178 35.4503 27.4915 40.4018 27.4915 40.4018L26.2537 49.509C26.1652 50.3048 28.2873 50.3932 28.2873 50.3932Z" fill="#D91400"/>
<path d="M29.3477 33.063L29.1709 35.804L41.1075 35.8924L40.9307 33.063H29.3477Z" fill="#BFBEAD"/>
<path d="M29.3477 34.0361L40.9307 33.9477L40.8423 32.9751H29.2593L29.1709 33.7709C29.3477 33.9477 29.3477 34.0361 29.3477 34.0361Z" fill="#9F9E8C"/>
<path d="M27.4922 13.3456C27.4922 13.3456 33.6815 15.5561 37.0415 15.114C40.4014 14.6719 42.7887 13.4341 42.7887 13.4341C42.7887 13.4341 38.3678 11.6657 34.3889 11.8425C30.41 12.0193 27.4922 13.3456 27.4922 13.3456Z" fill="#D91400"/>
<path d="M38.6328 13.5227H31.9129L31.8245 13.169C31.4708 11.7543 31.5593 10.9585 32.0898 10.7817C32.4434 10.6933 37.9254 10.5164 38.456 10.7817C38.8981 10.9585 38.9865 11.6659 38.7212 13.0806L38.6328 13.5227ZM32.2666 13.0806H38.2791C38.5444 11.4006 38.2791 11.2238 38.2791 11.2238C37.837 11.047 32.7087 11.1354 32.2666 11.2238C32.0014 11.3122 32.0014 12.0196 32.2666 13.0806Z" fill="#810B00"/>
<path d="M25.0176 32.6211C24.9292 32.6211 24.8408 32.5327 24.8408 32.4442C24.3987 31.3832 20.5082 20.5076 20.3314 18.7392C20.1545 16.5288 21.2156 14.672 21.304 14.5835C21.3924 14.4951 21.4808 14.4067 21.5692 14.4951C21.6577 14.5835 21.7461 14.672 21.6577 14.7604C21.6577 14.7604 20.5966 16.5288 20.7735 18.6508C20.9503 20.3308 24.6639 30.8527 25.1944 32.2674C25.2828 32.4442 25.1944 32.6211 25.0176 32.6211C25.0176 32.6211 25.106 32.6211 25.0176 32.6211Z" fill="#002F10"/>
<path d="M24.7516 32.8867C24.6631 32.8867 24.5747 32.7983 24.5747 32.7983C24.5747 32.7099 20.8611 24.3985 20.2422 23.3375C19.7116 22.2764 18.2085 19.5354 18.6506 17.3249C18.9159 15.9102 19.8885 14.9376 21.48 14.6724C21.5685 14.6724 21.7453 14.7608 21.7453 14.8492C21.7453 14.9376 21.7453 15.1145 21.5685 15.1145C20.1537 15.3797 19.2696 16.2639 19.0927 17.4134C18.739 19.447 20.1537 22.0996 20.6843 23.0722C21.3032 24.2217 24.84 32.2678 25.0168 32.6215C25.1052 32.7099 25.0168 32.8867 24.9284 32.8867C24.7516 32.8867 24.7516 32.8867 24.7516 32.8867Z" fill="#002F10"/>
<path d="M25.813 32.3558C25.7246 32.3558 25.6362 32.2674 25.6362 32.1789C25.6362 32.0905 24.4867 20.4192 24.3099 18.3855C24.133 16.7056 22.7183 15.7329 21.8341 15.114C21.7457 15.0256 21.6573 15.0256 21.5689 14.9372C21.4805 14.8488 21.4805 14.7603 21.4805 14.6719C21.5689 14.5835 21.6573 14.5835 21.7457 14.5835C21.8341 14.6719 21.9226 14.6719 22.011 14.7603C22.8952 15.3793 24.3983 16.4403 24.6636 18.2971C24.9288 20.3308 25.9899 32.0021 25.9899 32.0905C26.0783 32.1789 25.9899 32.3558 25.813 32.3558Z" fill="#002F10"/>
<path d="M26.1667 32.7097C26.0783 32.7097 25.9899 32.6213 25.9899 32.5329C25.9899 32.4445 25.9014 24.2215 25.9899 21.9226C26.0783 19.27 25.9899 17.5016 25.0172 15.9985C24.133 14.5838 22.5415 14.849 21.9226 14.9374C21.8341 14.9374 21.7457 14.9374 21.6573 14.9374C21.5689 14.9374 21.4805 14.849 21.4805 14.6722C21.4805 14.4953 21.5689 14.4069 21.7457 14.4953C21.7457 14.4953 21.8341 14.4953 21.9226 14.4953C22.5415 14.4069 24.4867 14.1417 25.4593 15.8216C26.5204 17.4132 26.5204 19.27 26.5204 22.011C26.432 24.3099 26.5204 32.5329 26.5204 32.6213C26.432 32.6213 26.3435 32.7097 26.1667 32.7097Z" fill="#002F10"/>
<path d="M25.6357 33.2404C25.5473 33.2404 25.4589 33.152 25.4589 33.0636L21.3916 14.9376C21.3916 14.8492 21.48 14.6724 21.5684 14.6724C21.6569 14.6724 21.8337 14.7608 21.8337 14.8492L25.901 32.9752C25.901 33.0636 25.8126 33.152 25.6357 33.2404Z" fill="#002F10"/>
<path d="M24.3975 32.4446C24.3975 32.4446 27.4921 46.4148 27.669 47.2106C27.8458 48.0064 28.3763 48.8906 29.1721 48.7137C29.9679 48.5369 30.0563 47.6527 29.8795 46.5917C29.6142 45.3538 26.5195 31.9141 26.5195 31.9141L24.3975 32.4446Z" fill="#A8A79A"/>
<path d="M24.6627 26.9624C22.8944 25.7245 19.1807 25.9013 18.385 26.0782C14.8482 26.9624 8.30516 29.1728 7.77464 29.3497C6.09468 29.9686 3 31.2065 3 31.2065L3.17684 35.6275C3.17684 35.6275 8.65884 36.9537 12.7261 37.7495C16.7934 38.5453 20.8607 39.0758 23.1596 38.0148C25.4585 36.9538 26.9616 35.6275 27.2269 33.417C27.4037 31.3833 27.3153 30.4991 26.7848 29.3497C26.1659 27.935 24.6627 26.9624 24.6627 26.9624Z" fill="#EFC1BE"/>
<path d="M24.5742 50.6586L19.4458 51.0123L17.2354 37.9263L20.8605 36.9537L25.1047 35.8042L24.5742 50.6586Z" fill="#EFC1BE"/>
<path d="M20.9489 36.1576C19.4458 36.1576 18.2964 35.5386 17.589 34.2123C16.9701 33.2397 16.528 31.4713 17.3237 29.9682C18.2079 28.2882 20.1532 27.9346 20.8605 27.9346C22.0984 27.9346 23.071 28.3767 23.8668 29.084C24.6626 29.8798 24.9278 30.764 24.9278 31.1177C25.1931 32.3555 24.9278 33.505 24.3089 34.4776C23.6015 35.5386 22.2752 36.0691 21.4795 36.1576L21.391 35.7155C22.1868 35.6271 23.2478 35.0965 23.8668 34.2123C24.4857 33.4166 24.6626 32.2671 24.4857 31.2061C24.3973 30.8524 24.2205 30.1451 23.5131 29.4377C22.8942 28.7303 22.01 28.3767 20.8605 28.3767C20.2416 28.3767 18.4732 28.7303 17.6774 30.1451C16.9701 31.4713 17.3237 33.0629 17.8543 33.9471C18.65 35.185 19.7995 35.8039 21.3026 35.6271L21.391 35.8039V36.0692C21.3026 36.1576 21.1258 36.1576 20.9489 36.1576Z" fill="#D39B98"/>
<path d="M3.5308 35.9813L3.44238 35.5392C4.415 35.0087 4.94551 34.3013 5.03393 33.594C5.12235 32.3561 3.79606 31.2951 3.70764 31.2951L3.9729 30.9414C4.06132 31.0298 5.56445 32.0909 5.47603 33.594C5.38761 34.4782 4.76867 35.274 3.70764 35.8929C3.61922 35.8929 3.5308 35.9813 3.5308 35.9813Z" fill="#D39B98"/>
<path d="M24.6421 31.3425L17.2275 31.7778L17.2534 32.2192L24.668 31.7839L24.6421 31.3425Z" fill="#D39B98"/>
<path d="M17.9434 34.3895V33.9474L24.2211 33.5938L24.3096 34.0358H24.2211L17.9434 34.3895Z" fill="#D39B98"/>
<path d="M17.7662 30.2338L17.6777 29.7917L23.7787 29.2612V29.7033L17.7662 30.2338Z" fill="#D39B98"/>
<path d="M21.6562 50.9244L21.7447 52.6043H22.8057L22.7173 50.8359L21.6562 50.9244Z" fill="#3C5749"/>
<path d="M46.2383 30.1455C46.2383 30.1455 46.4151 28.8192 46.8572 28.4655C47.3877 28.0234 48.5372 28.0234 48.6256 27.5813C48.714 27.3161 48.5372 27.0508 48.5372 26.5203C48.5372 26.0782 48.714 25.3708 49.0677 25.194C49.2445 25.0172 49.5982 24.7519 50.2172 24.8403C50.6592 24.9287 50.9245 25.194 51.1013 25.7245C51.2782 26.1666 51.1013 26.874 50.9245 27.1392C50.5708 27.6697 50.4824 27.6697 50.394 28.0234C50.2171 28.6423 51.6319 29.0844 51.7203 29.9686C51.8087 30.5876 51.5434 31.4718 51.5434 31.4718L46.2383 30.1455Z" fill="#D5A600"/>
<path d="M45.1769 31.914L51.3662 33.4172C51.3662 33.4172 52.9578 34.4782 52.4273 36.7771C51.7199 40.137 48.8021 52.6926 48.2716 53.6652C47.741 54.6378 47.2989 55.6988 45.7958 55.522C44.2927 55.3452 42.0822 54.9031 40.3138 54.2841C38.6339 53.6652 38.5454 52.1621 38.8107 50.5705C39.0759 48.979 42.1706 35.8929 42.4359 34.3013C42.6127 32.9751 44.4695 31.6488 45.1769 31.914Z" fill="#62C0C3"/>
<path d="M45.0001 29.7033L44.6464 31.0296C44.558 31.3833 44.6464 31.8254 44.9117 31.9138L51.4547 33.5054C51.8084 33.5938 52.1621 33.5054 52.2505 33.1517L52.6042 31.2949C52.6926 30.9412 52.2505 30.7644 51.9852 30.7644L45.8843 29.2612C45.5306 29.2612 45.0885 29.3496 45.0001 29.7033Z" fill="#90D2D4"/>
<path d="M51.6314 31.3832C51.6314 31.3832 51.7198 31.118 51.7198 30.7643L46.3263 29.438C46.2378 29.7917 46.1494 30.1453 46.1494 30.1453L51.6314 31.3832Z" fill="#ACDDDE"/>
<path d="M13.7876 43.8506L11.5771 70.288L54.0184 70.6417L50.7469 43.8506H13.7876Z" fill="#E7E5D9"/>
<path d="M32.886 55.6106C27.6693 55.6106 25.8125 52.1623 25.8125 48.8908C25.8125 46.415 25.8125 45.7961 25.8125 45.7961H26.2546C26.2546 45.7961 26.2546 46.5035 26.2546 48.8908C26.2546 50.3939 26.6967 55.1686 32.886 55.1686C37.3954 55.1686 38.6333 52.2507 38.8101 49.775C38.987 48.095 38.8986 45.4424 38.8986 45.354H39.3407C39.3407 45.354 39.3407 48.095 39.1638 49.775C38.8986 53.577 36.6881 55.6106 32.886 55.6106Z" fill="#C7C6B7"/>
</g>
</svg>
